<?xml version="1.0" encoding="UTF-8"?>
<svg xmlns="http://www.w3.org/2000/svg" version="1.1" viewBox="0 0 113.39 113.39">
  <defs>
    <style>
      .cls-1 {
        fill: #eeeff1;
      }
    </style>
  </defs>
  <!-- Generator: Adobe Illustrator 28.6.0, SVG Export Plug-In . SVG Version: 1.2.0 Build 709)  -->
  <g>
    <g id="Layer_13">
      <g>
        <path class="cls-1" d="M16.34,43.44c1.25,0,3.34,2.09,3.77,5.36.46,3.47-1.14,6.02-2.39,6.19-.05,0-.1.01-.15.01-1.25,0-3.34-2.09-3.77-5.36-.46-3.47,1.14-6.02,2.39-6.19.05,0,.1-.01.15-.01M16.34,34.44c-.44,0-.89.03-1.34.09-6.67.89-11.21,8.18-10.13,16.3,1.01,7.57,6.54,13.17,12.69,13.17.44,0,.89-.03,1.34-.09,6.67-.89,11.21-8.18,10.13-16.3-1.01-7.57-6.54-13.17-12.69-13.17h0Z"/>
        <path class="cls-1" d="M40.37,18.6c1.61,0,4.25,2.29,4.8,6.42.29,2.15-.1,4.26-1.05,5.8-.36.58-1.12,1.57-2.16,1.71-.09.01-.18.02-.26.02-1.61,0-4.25-2.29-4.8-6.42-.52-3.92,1.3-7.25,3.21-7.5.09-.01.18-.02.26-.02M40.37,9.6c-.48,0-.96.03-1.45.1-7.21.96-12.11,8.84-10.95,17.61,1.09,8.18,7.07,14.24,13.72,14.24.48,0,.96-.03,1.45-.1,7.21-.96,12.11-8.84,10.95-17.61-1.09-8.18-7.07-14.24-13.72-14.24h0Z"/>
        <path class="cls-1" d="M97.13,42.45c.11,0,.22,0,.33.03,1.09.17,1.84,1.19,2.19,1.78.89,1.51,1.22,3.55.9,5.6-.57,3.66-2.97,6.12-4.85,6.12-.11,0-.22,0-.33-.03-1.95-.3-3.69-3.52-3.09-7.38.57-3.66,2.97-6.12,4.85-6.12M97.13,34.45c-6.07,0-11.6,5.44-12.76,12.89-1.26,8.09,3.12,15.48,9.77,16.51.52.08,1.04.12,1.56.12,6.07,0,11.6-5.44,12.76-12.89,1.26-8.09-3.12-15.48-9.77-16.51-.52-.08-1.04-.12-1.56-.12h0Z"/>
        <path class="cls-1" d="M81.49,79.21c2.24,1.65,3.53,4.18,3.53,6.96,0,4.75-3.87,8.62-8.62,8.62-1.69,0-3.32-.49-4.72-1.41l-.42-.28-.45-.23c-4.36-2.21-9.25-3.41-14.12-3.46-5.44-.06-10.84,1.29-15.64,3.9l-.2.11-.19.12c-1.34.82-2.89,1.25-4.48,1.25-4.75,0-8.62-3.87-8.62-8.62,0-2.7,1.23-5.2,3.38-6.85l.11-.08.1-.08c.9-.73,8.9-7.36,13.56-14.83l.26-.42.21-.44c2.14-4.44,6.7-7.31,11.62-7.31s9.7,3,11.77,7.63l.24.53.3.49c.61.99,6.12,9.84,12.41,14.43l5.3-7.27c-5.03-3.67-10.04-11.86-10.04-11.86-3.42-7.64-11.08-12.96-19.99-12.96s-16.2,5.07-19.73,12.41c-4,6.42-11.61,12.62-11.61,12.62-4.2,3.22-6.91,8.29-6.91,13.99,0,9.73,7.89,17.62,17.62,17.62,3.36,0,6.49-.94,9.16-2.57,1.85-1.01,5.86-2.86,11.25-2.81,4.73.05,8.31,1.55,10.15,2.49,2.78,1.82,6.1,2.88,9.67,2.88,9.73,0,17.62-7.89,17.62-17.62,0-5.83-2.83-11-7.2-14.21l-5.33,7.25h0Z"/>
        <path class="cls-1" d="M74.36,19.16h0c.16,0,.32.02.47.06,1.87.46,3.32,3.97,2.39,7.8-.89,3.63-3.41,5.88-5.24,5.88-.16,0-.32-.02-.47-.06-1.87-.46-3.32-3.97-2.39-7.8.89-3.63,3.41-5.88,5.24-5.88M74.36,10.16c-6.2,0-12.14,5.21-13.99,12.74-2.1,8.59,1.93,16.96,8.99,18.68.87.21,1.74.31,2.61.31,6.2,0,12.14-5.21,13.99-12.74,2.1-8.59-1.93-16.96-8.99-18.68-.87-.21-1.74-.31-2.61-.31h0Z"/>
      </g>
    </g>
  </g>
</svg>