<?xml version="1.0" encoding="UTF-8"?><svg id="Layer_3" xmlns="http://www.w3.org/2000/svg" viewBox="0 0 127.2 166.25"><defs><style>.cls-1{fill:#4856f0;stroke:#4856f0;stroke-miterlimit:10;stroke-width:5px;}</style></defs><path class="cls-1" d="M23.92,156.98c-.74,0-1.5-.17-2.2-.53-2.42-1.22-3.4-4.17-2.18-6.59l39.88-79.21c1.22-2.42,4.17-3.4,6.59-2.18,2.42,1.22,3.4,4.17,2.18,6.59l-39.88,79.21c-.86,1.71-2.59,2.7-4.39,2.7Z"/><path class="cls-1" d="M103.69,156.98c-1.8,0-3.53-.99-4.39-2.7l-39.88-79.21c-1.22-2.42-.24-5.37,2.18-6.59,2.42-1.22,5.37-.25,6.59,2.18l39.88,79.21c1.22,2.42.24,5.37-2.18,6.59-.71.36-1.46.53-2.2.53Z"/><path class="cls-1" d="M83.81,117.52h-40.02c-2.71,0-4.91-2.2-4.91-4.91s2.2-4.91,4.91-4.91h39.63c3.78-.64,10.58-2.62,16.12-8.77,7.21-8.01,7.21-17.7,7.04-20.48,0-.1,0-.2,0-.3V26.44l-19.46,16.9c-1.35,1.5-3.53,2.04-5.48,1.26-5.79-2.33-12-3.52-18.46-3.52s-12.67,1.18-18.46,3.52c-1.95.78-4.12.24-5.48-1.26l-19.46-16.9v51.7c0,2.71-2.2,4.91-4.91,4.91s-4.91-2.2-4.91-4.91V15.67c0-1.92,1.12-3.67,2.87-4.47,1.75-.8,3.8-.5,5.26.76l25.85,22.45c6.12-2.09,12.58-3.15,19.23-3.15s13.12,1.06,19.23,3.15l25.85-22.45c1.45-1.26,3.51-1.56,5.26-.76,1.75.8,2.87,2.54,2.87,4.47v62.32c.28,4.91-.15,17.06-9.55,27.5-7.76,8.62-17.29,11.2-22.28,11.97-.25.04-.5.06-.75.06Z"/></svg>