<?xml version="1.0" encoding="UTF-8"?><svg id="Layer_1" xmlns="http://www.w3.org/2000/svg" viewBox="0 0 255.12 170.08"><defs><style>.cls-1{fill:#eeeff2;}</style></defs><path class="cls-1" d="M23.01,153.97c-.7,0-1.41-.16-2.08-.5-2.28-1.15-3.2-3.93-2.05-6.22l37.6-74.68c1.15-2.28,3.93-3.2,6.22-2.05,2.28,1.15,3.2,3.93,2.05,6.22l-37.6,74.68c-.81,1.62-2.45,2.55-4.14,2.55Z"/><path class="cls-1" d="M98.22,153.97c-1.69,0-3.32-.93-4.14-2.55l-37.6-74.68c-1.15-2.28-.23-5.07,2.05-6.22,2.28-1.15,5.07-.23,6.22,2.05l37.6,74.68c1.15,2.28.23,5.07-2.05,6.22-.67.34-1.38.5-2.08.5Z"/><path class="cls-1" d="M79.49,116.76h-37.73c-2.56,0-4.63-2.07-4.63-4.63s2.07-4.63,4.63-4.63h37.36c3.57-.6,9.98-2.47,15.2-8.27,6.8-7.55,6.8-16.69,6.64-19.31,0-.1,0-.19,0-.29V30.89l-18.35,15.94c-1.27,1.41-3.33,1.93-5.16,1.19-5.46-2.2-11.32-3.31-17.4-3.31s-11.94,1.11-17.4,3.31c-1.83.74-3.89.22-5.16-1.19l-18.35-15.94v48.74c0,2.56-2.07,4.63-4.63,4.63s-4.63-2.07-4.63-4.63V20.74c0-1.81,1.06-3.46,2.71-4.21,1.65-.75,3.59-.47,4.96.72l24.37,21.17c5.77-1.97,11.86-2.97,18.14-2.97s12.37,1,18.14,2.97l24.37-21.17c1.37-1.19,3.31-1.47,4.96-.72,1.65.75,2.71,2.4,2.71,4.21v58.76c.26,4.63-.14,16.09-9.01,25.93-7.32,8.12-16.3,10.56-21.01,11.28-.23.04-.47.05-.71.05Z"/><path class="cls-1" d="M146.63,79.13h-16.71c.02,1.94.41,3.65,1.17,5.13.76,1.48,1.77,2.6,3.04,3.35,1.26.75,2.65,1.13,4.18,1.13,1.02,0,1.96-.12,2.8-.36.85-.24,1.66-.61,2.46-1.13.79-.51,1.52-1.06,2.19-1.64s1.53-1.38,2.6-2.38c.44-.38,1.06-.56,1.88-.56.88,0,1.59.24,2.13.72s.81,1.16.81,2.03c0,.77-.3,1.67-.91,2.71s-1.52,2.02-2.74,2.97c-1.22.95-2.75,1.74-4.6,2.36-1.85.63-3.97.94-6.37.94-5.49,0-9.76-1.56-12.8-4.69-3.05-3.13-4.57-7.38-4.57-12.74,0-2.52.38-4.87,1.13-7.03.75-2.16,1.85-4.01,3.29-5.56s3.21-2.73,5.32-3.55c2.11-.82,4.44-1.24,7.01-1.24,3.34,0,6.2.7,8.59,2.11,2.39,1.41,4.18,3.23,5.37,5.46,1.19,2.23,1.78,4.51,1.78,6.82,0,2.15-.62,3.54-1.85,4.18-1.23.64-2.96.95-5.2.95ZM129.92,74.28h15.49c-.21-2.92-1-5.11-2.36-6.56-1.37-1.45-3.17-2.17-5.4-2.17s-3.88.74-5.24,2.21c-1.37,1.47-2.2,3.65-2.49,6.53Z"/><path class="cls-1" d="M182.81,89.52v-.85c-1.15,1.31-2.28,2.38-3.4,3.21-1.12.82-2.33,1.45-3.63,1.88-1.3.43-2.73.64-4.27.64-2.04,0-3.94-.43-5.68-1.3-1.74-.87-3.25-2.1-4.52-3.71s-2.24-3.5-2.89-5.67c-.66-2.17-.99-4.52-.99-7.04,0-5.34,1.3-9.5,3.91-12.49,2.61-2.98,6.04-4.48,10.3-4.48,2.46,0,4.54.42,6.23,1.27s3.34,2.14,4.95,3.9v-12.61c0-1.75.35-3.08,1.05-3.98s1.7-1.35,2.99-1.35,2.29.41,2.99,1.24c.7.82,1.05,2.04,1.05,3.65v37.68c0,1.63-.38,2.85-1.13,3.66s-1.72,1.22-2.91,1.22-2.13-.42-2.89-1.27c-.76-.85-1.14-2.05-1.14-3.61ZM166,76.97c0,2.32.36,4.29,1.08,5.92.72,1.63,1.71,2.85,2.96,3.68,1.25.82,2.62,1.24,4.1,1.24s2.87-.39,4.12-1.17c1.24-.78,2.23-1.98,2.97-3.6.74-1.62,1.11-3.64,1.11-6.06,0-2.27-.37-4.23-1.11-5.87-.74-1.64-1.74-2.89-3-3.76-1.26-.87-2.64-1.3-4.15-1.3s-2.96.44-4.19,1.33c-1.23.89-2.19,2.16-2.86,3.82s-1.02,3.58-1.02,5.78Z"/><path class="cls-1" d="M206.53,64.51v24.7c0,1.71-.41,3-1.22,3.88s-1.85,1.31-3.1,1.31-2.27-.45-3.05-1.35c-.78-.9-1.17-2.18-1.17-3.85v-24.45c0-1.69.39-2.96,1.17-3.82.78-.86,1.8-1.28,3.05-1.28s2.28.43,3.1,1.28,1.22,2.04,1.22,3.57Z"/><path class="cls-1" d="M235.48,89.58c-2.07,1.61-4.06,2.81-5.99,3.61-1.93.8-4.1,1.21-6.5,1.21-2.19,0-4.12-.43-5.77-1.3-1.66-.87-2.94-2.04-3.83-3.52s-1.35-3.09-1.35-4.82c0-2.34.74-4.33,2.22-5.98s3.52-2.75,6.1-3.32c.54-.13,1.89-.41,4.04-.85s3.99-.84,5.52-1.21c1.53-.36,3.2-.81,4.99-1.33-.1-2.25-.56-3.91-1.36-4.96-.8-1.05-2.47-1.58-4.99-1.58-2.17,0-3.8.3-4.9.91-1.1.61-2.04,1.51-2.82,2.72-.78,1.21-1.34,2.01-1.66,2.39-.32.39-1.02.58-2.08.58-.96,0-1.79-.31-2.49-.92-.7-.61-1.05-1.4-1.05-2.36,0-1.5.53-2.96,1.6-4.38,1.06-1.42,2.72-2.59,4.98-3.51s5.06-1.38,8.42-1.38c3.76,0,6.71.44,8.86,1.33,2.15.89,3.67,2.29,4.55,4.21.89,1.92,1.33,4.47,1.33,7.64,0,2,0,3.7-.02,5.1s-.03,2.95-.05,4.66c0,1.61.27,3.28.8,5.02.53,1.74.8,2.86.8,3.37,0,.88-.41,1.67-1.24,2.39s-1.76,1.08-2.8,1.08c-.88,0-1.74-.41-2.6-1.24s-1.76-2.02-2.72-3.58ZM234.92,77.22c-1.25.46-3.07.94-5.46,1.46-2.39.51-4.04.89-4.96,1.13-.92.24-1.79.71-2.63,1.41-.83.7-1.25,1.67-1.25,2.93s.49,2.39,1.47,3.3c.98.91,2.26,1.36,3.85,1.36,1.69,0,3.25-.37,4.68-1.11,1.43-.74,2.48-1.7,3.15-2.86.77-1.29,1.16-3.42,1.16-6.39v-1.22Z"/><path class="cls-1" d="M137.5,141.31c0,2.36-.57,4.38-1.72,6.06-1.15,1.68-2.84,2.95-5.09,3.82-2.24.87-4.97,1.3-8.18,1.3s-5.7-.47-7.89-1.41c-2.19-.94-3.81-2.11-4.85-3.52-1.04-1.41-1.56-2.82-1.56-4.24,0-.94.33-1.74,1-2.41.67-.67,1.51-1,2.54-1,.9,0,1.59.22,2.07.66s.94,1.05,1.38,1.85c.88,1.52,1.92,2.66,3.15,3.41,1.22.75,2.88,1.13,4.99,1.13,1.71,0,3.11-.38,4.21-1.14,1.09-.76,1.64-1.63,1.64-2.61,0-1.5-.57-2.6-1.71-3.29-1.14-.69-3.01-1.35-5.62-1.97-2.94-.73-5.34-1.5-7.18-2.3-1.85-.8-3.32-1.86-4.43-3.18-1.11-1.31-1.66-2.93-1.66-4.85,0-1.71.51-3.33,1.53-4.85,1.02-1.52,2.53-2.74,4.52-3.65,1.99-.91,4.4-1.36,7.21-1.36,2.21,0,4.2.23,5.96.69,1.76.46,3.23,1.08,4.41,1.85,1.18.77,2.08,1.63,2.69,2.57.61.94.92,1.86.92,2.75,0,.98-.33,1.78-.99,2.41-.66.63-1.59.94-2.8.94-.88,0-1.62-.25-2.24-.75s-1.32-1.25-2.11-2.25c-.65-.83-1.41-1.5-2.28-2s-2.07-.75-3.57-.75-2.83.33-3.85.99-1.53,1.48-1.53,2.46c0,.9.38,1.63,1.13,2.21s1.76,1.05,3.04,1.42,3.03.83,5.26,1.38c2.65.65,4.81,1.42,6.49,2.32,1.68.9,2.95,1.96,3.82,3.18s1.3,2.61,1.3,4.18Z"/><path class="cls-1" d="M170.77,141.31c0,2.36-.57,4.38-1.72,6.06-1.15,1.68-2.84,2.95-5.09,3.82-2.24.87-4.97,1.3-8.18,1.3s-5.7-.47-7.89-1.41-3.81-2.11-4.85-3.52c-1.04-1.41-1.56-2.82-1.56-4.24,0-.94.33-1.74,1-2.41.67-.67,1.51-1,2.54-1,.9,0,1.59.22,2.07.66s.94,1.05,1.38,1.85c.88,1.52,1.92,2.66,3.15,3.41,1.22.75,2.88,1.13,4.99,1.13,1.71,0,3.11-.38,4.21-1.14,1.09-.76,1.64-1.63,1.64-2.61,0-1.5-.57-2.6-1.71-3.29-1.14-.69-3.01-1.35-5.62-1.97-2.94-.73-5.34-1.5-7.18-2.3-1.85-.8-3.32-1.86-4.43-3.18s-1.66-2.93-1.66-4.85c0-1.71.51-3.33,1.53-4.85,1.02-1.52,2.53-2.74,4.52-3.65,1.99-.91,4.4-1.36,7.21-1.36,2.21,0,4.2.23,5.96.69,1.76.46,3.23,1.08,4.41,1.85,1.18.77,2.08,1.63,2.69,2.57.61.94.92,1.86.92,2.75,0,.98-.33,1.78-.99,2.41-.66.63-1.59.94-2.8.94-.88,0-1.62-.25-2.24-.75s-1.32-1.25-2.11-2.25c-.65-.83-1.41-1.5-2.28-2s-2.07-.75-3.57-.75-2.83.33-3.85.99-1.53,1.48-1.53,2.46c0,.9.38,1.63,1.13,2.21s1.76,1.05,3.04,1.42,3.03.83,5.26,1.38c2.65.65,4.81,1.42,6.49,2.32,1.68.9,2.95,1.96,3.82,3.18.87,1.22,1.3,2.61,1.3,4.18Z"/><path class="cls-1" d="M180.85,113.76c-1.19,0-2.21-.36-3.05-1.1-.85-.73-1.27-1.76-1.27-3.1,0-1.21.43-2.21,1.3-2.99s1.87-1.17,3.02-1.17,2.09.36,2.94,1.06c.86.71,1.28,1.74,1.28,3.1s-.42,2.34-1.25,3.08-1.83,1.11-2.97,1.11ZM185.07,122.59v24.7c0,1.71-.41,3-1.22,3.88s-1.85,1.31-3.1,1.31-2.27-.45-3.05-1.35c-.78-.9-1.17-2.18-1.17-3.85v-24.45c0-1.69.39-2.96,1.17-3.82.78-.86,1.8-1.28,3.05-1.28s2.28.43,3.1,1.28c.81.86,1.22,2.05,1.22,3.57Z"/><path class="cls-1" d="M219.94,141.31c0,2.36-.57,4.38-1.72,6.06-1.15,1.68-2.84,2.95-5.09,3.82-2.24.87-4.97,1.3-8.18,1.3s-5.7-.47-7.89-1.41c-2.19-.94-3.81-2.11-4.85-3.52s-1.56-2.82-1.56-4.24c0-.94.33-1.74,1-2.41.67-.67,1.51-1,2.54-1,.9,0,1.59.22,2.07.66s.94,1.05,1.38,1.85c.88,1.52,1.92,2.66,3.15,3.41,1.22.75,2.88,1.13,4.99,1.13,1.71,0,3.11-.38,4.21-1.14,1.09-.76,1.64-1.63,1.64-2.61,0-1.5-.57-2.6-1.71-3.29-1.14-.69-3.01-1.35-5.62-1.97-2.94-.73-5.34-1.5-7.18-2.3-1.85-.8-3.32-1.86-4.43-3.18s-1.66-2.93-1.66-4.85c0-1.71.51-3.33,1.53-4.85,1.02-1.52,2.53-2.74,4.52-3.65,1.99-.91,4.4-1.36,7.21-1.36,2.21,0,4.2.23,5.96.69,1.76.46,3.23,1.08,4.41,1.85,1.18.77,2.08,1.63,2.69,2.57.61.94.92,1.86.92,2.75,0,.98-.33,1.78-.99,2.41-.66.63-1.59.94-2.8.94-.88,0-1.62-.25-2.24-.75s-1.32-1.25-2.11-2.25c-.65-.83-1.41-1.5-2.28-2s-2.07-.75-3.57-.75-2.83.33-3.85.99c-1.02.66-1.53,1.48-1.53,2.46,0,.9.38,1.63,1.13,2.21s1.76,1.05,3.04,1.42,3.03.83,5.26,1.38c2.65.65,4.81,1.42,6.49,2.32,1.68.9,2.95,1.96,3.82,3.18s1.3,2.61,1.3,4.18Z"/><path class="cls-1" d="M226.16,118.49h.94v-5.13c0-1.38.04-2.46.11-3.24.07-.78.28-1.46.61-2.02.33-.58.81-1.06,1.44-1.42s1.33-.55,2.1-.55c1.09,0,2.07.41,2.94,1.22.58.54.95,1.21,1.11,1.99.16.78.23,1.89.23,3.33v5.82h3.13c1.21,0,2.13.29,2.77.86.64.57.95,1.31.95,2.21,0,1.15-.45,1.95-1.36,2.41-.91.46-2.21.69-3.9.69h-1.6v15.71c0,1.34.05,2.36.14,3.08.09.72.34,1.3.75,1.75.41.45,1.07.67,1.99.67.5,0,1.18-.09,2.03-.27s1.52-.27,2-.27c.69,0,1.31.28,1.86.83.55.55.83,1.24.83,2.05,0,1.38-.75,2.43-2.25,3.16s-3.66,1.1-6.48,1.1c-2.67,0-4.69-.45-6.07-1.35-1.38-.9-2.28-2.14-2.71-3.72-.43-1.59-.64-3.7-.64-6.35v-16.4h-1.13c-1.23,0-2.17-.29-2.82-.88-.65-.58-.97-1.33-.97-2.22s.34-1.63,1.02-2.21c.68-.57,1.66-.86,2.96-.86Z"/><ellipse class="cls-1" cx="195.2" cy="46.28" rx="2.27" ry="2.76" transform="translate(-4.4 26.12) rotate(-7.57)"/><ellipse class="cls-1" cx="199.69" cy="41.87" rx="2.45" ry="2.98" transform="translate(-3.78 26.67) rotate(-7.57)"/><ellipse class="cls-1" cx="205.46" cy="41.87" rx="2.98" ry="2.45" transform="translate(153.65 245.06) rotate(-87.21)"/><ellipse class="cls-1" cx="210.01" cy="46.28" rx="2.76" ry="2.27" transform="translate(132.04 246.69) rotate(-81.17)"/><path class="cls-1" d="M208.22,50.51c.81.6,1.34,1.56,1.34,2.65,0,1.81-1.47,3.28-3.28,3.28-.66,0-1.28-.2-1.8-.54-.34-.17-1.01-.45-1.89-.46-1-.01-1.75.34-2.1.52-.5.3-1.08.48-1.71.48-1.81,0-3.28-1.47-3.28-3.28,0-1.06.5-2.01,1.29-2.61,0,0,1.42-1.16,2.16-2.35.66-1.37,2.06-2.31,3.68-2.31s3.09.99,3.72,2.41c0,0,.93,1.52,1.87,2.21"/></svg>