<?xml version="1.0" encoding="UTF-8"?><svg id="Layer_3" xmlns="http://www.w3.org/2000/svg" viewBox="0 0 198.43 255.12"><defs><style>.cls-1{fill:#eeeff2;}</style></defs><path class="cls-1" d="M38.56,240.41c-1.15,0-2.31-.26-3.4-.81-3.74-1.88-5.24-6.44-3.36-10.18l61.56-122.26c1.88-3.74,6.44-5.24,10.18-3.36,3.74,1.88,5.24,6.44,3.36,10.18l-61.56,122.26c-1.33,2.65-4,4.17-6.78,4.17Z"/><path class="cls-1" d="M161.69,240.41c-2.77,0-5.44-1.53-6.78-4.17l-61.56-122.26c-1.88-3.74-.38-8.3,3.36-10.18,3.74-1.88,8.3-.38,10.18,3.36l61.56,122.26c1.88,3.74.38,8.3-3.36,10.18-1.09.55-2.26.81-3.4.81Z"/><path class="cls-1" d="M131.01,179.49h-61.78c-4.19,0-7.58-3.39-7.58-7.58s3.39-7.58,7.58-7.58h61.17c5.84-.98,16.33-4.04,24.89-13.54,11.13-12.36,11.13-27.33,10.87-31.62-.01-.16-.01-.31-.01-.47V38.91l-30.04,26.09c-2.09,2.31-5.45,3.15-8.45,1.94-8.94-3.6-18.53-5.43-28.49-5.43s-19.55,1.83-28.49,5.43c-3,1.21-6.37.36-8.45-1.94l-30.04-26.09v79.8c0,4.19-3.39,7.58-7.58,7.58s-7.58-3.39-7.58-7.58V22.29c0-2.97,1.73-5.67,4.44-6.9,2.7-1.23,5.87-.77,8.11,1.17l39.9,34.66c9.44-3.23,19.41-4.86,29.69-4.86s20.24,1.63,29.69,4.86l39.9-34.66c2.24-1.95,5.41-2.41,8.11-1.17,2.7,1.23,4.44,3.93,4.44,6.9v96.2c.43,7.58-.24,26.34-14.75,42.45-11.98,13.3-26.69,17.28-34.39,18.47-.38.06-.77.09-1.16.09Z"/></svg>